<?xml version="1.0" standalone="no"?>
<!DOCTYPE svg PUBLIC "-//W3C//DTD SVG 20010904//EN"
 "http://www.w3.org/TR/2001/REC-SVG-20010904/DTD/svg10.dtd">
<svg version="1.0" xmlns="http://www.w3.org/2000/svg"
 width="512.000000pt" height="512.000000pt" viewBox="0 0 512.000000 512.000000"
 preserveAspectRatio="xMidYMid meet">

<g transform="translate(0.000000,512.000000) scale(0.100000,-0.100000)"
fill="#000000" stroke="none">
<path d="M1055 3426 c-41 -18 -83 -69 -91 -111 -17 -91 -55 -48 754 -858 411
-412 759 -755 774 -763 35 -18 101 -18 136 0 15 8 363 351 774 763 811 812
771 767 753 860 -9 49 -69 109 -118 118 -93 18 -54 52 -795 -688 l-682 -682
-678 677 c-377 378 -689 682 -705 688 -38 14 -85 12 -122 -4z"/>
</g>
</svg>
